<?xml version="1.0" encoding="utf-8"?>
<!-- Generator: Adobe Illustrator 24.0.1, SVG Export Plug-In . SVG Version: 6.00 Build 0)  -->
<svg version="1.1" id="Layer_1" xmlns="http://www.w3.org/2000/svg" xmlns:xlink="http://www.w3.org/1999/xlink" x="0px" y="0px"
	 viewBox="0 0 199 79" style="enable-background:new 0 0 199 79;" xml:space="preserve">
<style type="text/css">
	.st0{enable-background:new    ;}
	.st1{fill:#FFFFFF;}
	.st2{font-family:'DINCondensed-Bold';}
	.st3{font-size:38px;}
</style>
<title>Logo</title>
<g id="Page-1">
	<g id="Layer" transform="translate(-39, -18)">
		<g id="Design-1" transform="translate(-283.2, -36.1667)">
			<g id="Header" transform="translate(283.2, 36.1667)">
				<g id="Logo" transform="translate(39.6, 18)">
					<g class="st0">
						<path class="st1" d="M2.5,76.1V49.1h5.8c1.1,0,2,0.1,2.8,0.4c0.8,0.3,1.5,0.8,2.2,1.5c0.7,0.7,1.1,1.5,1.4,2.5
							c0.3,1,0.4,2.2,0.4,3.9c0,1.2-0.1,2.2-0.2,3.1S14.4,62,14,62.8c-0.5,0.9-1.2,1.6-2.1,2.1s-2.1,0.7-3.5,0.7h-2v10.6H2.5z
							 M6.4,52.7v9.2h1.9c0.8,0,1.4-0.1,1.8-0.3c0.4-0.2,0.7-0.5,0.9-1c0.2-0.4,0.3-0.8,0.4-1.4c0-0.6,0.1-1.2,0.1-1.9
							c0-0.6,0-1.2,0-1.8c0-0.6-0.1-1.1-0.3-1.5c-0.2-0.4-0.5-0.8-0.9-1c-0.4-0.2-1-0.3-1.7-0.3H6.4z"/>
						<path class="st1" d="M18,76.1V49.1h11.6v3.6h-7.7v7.9h6.7v3.6h-6.7v7.9h7.7v3.9H18z"/>
						<path class="st1" d="M32,76.1V49.1h6.2c4.6,0,6.8,2.6,6.8,7.9c0,1.6-0.2,3-0.7,4.1c-0.5,1.1-1.4,2-2.6,2.7L46,76.1h-4.1
							l-3.6-11.6h-2.3v11.6H32z M35.9,52.7v8.4h2.2c0.7,0,1.2-0.1,1.6-0.3c0.4-0.2,0.7-0.5,0.9-0.8c0.2-0.4,0.3-0.8,0.4-1.3
							c0.1-0.5,0.1-1.1,0.1-1.8c0-0.7,0-1.3-0.1-1.8c-0.1-0.5-0.2-1-0.5-1.3c-0.5-0.7-1.4-1.1-2.7-1.1H35.9z"/>
						<path class="st1" d="M48.3,76.1V49.1h3.9v27.1H48.3z"/>
					</g>
					<text transform="matrix(1 0 0 1 76.3088 93.5636)" class="st1 st2 st3"> </text>
					<g class="st0">
						<path class="st1" d="M74.6,49.8h-5.5v-1.2c0-1.3-0.3-2.3-0.9-3.3c-0.6-0.9-1.6-1.4-3-1.4c-0.8,0-1.4,0.1-1.8,0.4
							c-0.5,0.3-0.8,0.6-1.1,1.1c-0.3,0.5-0.5,1-0.6,1.6s-0.2,1.2-0.2,1.9c0,0.8,0,1.4,0.1,1.9c0.1,0.5,0.2,1,0.4,1.4
							c0.2,0.4,0.5,0.7,0.9,1c0.4,0.3,1,0.6,1.7,0.9l4.2,1.7c1.2,0.5,2.2,1,3,1.6s1.4,1.4,1.8,2.2c0.4,0.9,0.7,1.8,0.8,2.9
							c0.1,1.1,0.2,2.3,0.2,3.8c0,1.6-0.2,3.1-0.5,4.5c-0.3,1.4-0.8,2.6-1.6,3.5c-0.8,1-1.7,1.8-3,2.4c-1.2,0.6-2.7,0.9-4.5,0.9
							c-1.3,0-2.6-0.2-3.7-0.7c-1.2-0.5-2.1-1.1-3-1.9c-0.8-0.8-1.5-1.8-2-2.9c-0.5-1.1-0.7-2.3-0.7-3.6v-2.1h5.5v1.7
							c0,1,0.3,1.9,0.9,2.7c0.6,0.8,1.6,1.2,3,1.2c0.9,0,1.7-0.1,2.2-0.4c0.5-0.3,0.9-0.7,1.2-1.2c0.3-0.5,0.5-1.1,0.5-1.8
							c0.1-0.7,0.1-1.5,0.1-2.3c0-1,0-1.8-0.1-2.5c-0.1-0.6-0.2-1.2-0.4-1.6c-0.3-0.4-0.6-0.7-1-1c-0.4-0.3-1-0.5-1.6-0.8l-3.9-1.6
							c-2.4-1-4-2.3-4.8-3.9s-1.2-3.6-1.2-6c0-1.4,0.2-2.8,0.6-4.1c0.4-1.3,1-2.4,1.8-3.3c0.8-0.9,1.7-1.7,2.9-2.2
							c1.2-0.6,2.6-0.8,4.2-0.8c1.4,0,2.6,0.3,3.8,0.8c1.1,0.5,2.1,1.2,2.9,2c1.7,1.7,2.5,3.7,2.5,5.9V49.8z"/>
						<path class="st1" d="M96.2,66.2v2.4c0,1.2-0.2,2.3-0.7,3.4c-0.5,1.1-1.1,2-1.9,2.8c-0.8,0.8-1.7,1.5-2.8,2
							c-1.1,0.5-2.2,0.7-3.4,0.7c-1,0-2.1-0.1-3.2-0.4c-1.1-0.3-2.1-0.8-2.9-1.5c-0.9-0.7-1.6-1.6-2.1-2.8c-0.6-1.1-0.8-2.6-0.8-4.3
							V47.3c0-1.3,0.2-2.4,0.6-3.5s1-2,1.8-2.8c0.8-0.8,1.7-1.4,2.8-1.9c1.1-0.5,2.3-0.7,3.6-0.7c2.6,0,4.7,0.8,6.3,2.5
							c0.8,0.8,1.4,1.8,1.9,2.9c0.4,1.1,0.7,2.4,0.7,3.7v2.2h-5.5v-1.8c0-1.1-0.3-2-0.9-2.8c-0.6-0.8-1.4-1.2-2.5-1.2
							c-1.4,0-2.3,0.4-2.7,1.3c-0.5,0.8-0.7,1.9-0.7,3.2v19.7c0,1.1,0.2,2.1,0.7,2.8c0.5,0.8,1.4,1.1,2.6,1.1c0.4,0,0.7-0.1,1.2-0.2
							c0.4-0.1,0.8-0.3,1.2-0.6c0.3-0.3,0.6-0.7,0.8-1.2c0.2-0.5,0.3-1.1,0.3-1.9v-1.9H96.2z"/>
						<path class="st1" d="M100.3,47.8c0-1.5,0.3-2.9,0.8-4.1c0.5-1.2,1.3-2.2,2.2-3c0.9-0.8,1.8-1.3,2.9-1.7
							c1.1-0.4,2.2-0.6,3.3-0.6c1.1,0,2.2,0.2,3.3,0.6c1.1,0.4,2.1,1,3,1.7c0.9,0.8,1.6,1.8,2.1,3c0.5,1.2,0.8,2.6,0.8,4.1v20.3
							c0,1.6-0.3,3-0.8,4.2c-0.5,1.2-1.2,2.1-2.1,2.9c-0.9,0.8-1.9,1.4-3,1.8c-1.1,0.4-2.2,0.6-3.3,0.6c-1.1,0-2.2-0.2-3.3-0.6
							c-1.1-0.4-2.1-1-2.9-1.8c-0.9-0.8-1.6-1.7-2.2-2.9c-0.5-1.2-0.8-2.5-0.8-4.2V47.8z M105.8,68.1c0,1.3,0.4,2.3,1.1,2.9
							c0.7,0.6,1.6,0.9,2.6,0.9c1,0,1.9-0.3,2.6-0.9c0.7-0.6,1.1-1.6,1.1-2.9V47.8c0-1.3-0.4-2.3-1.1-2.9c-0.7-0.6-1.6-0.9-2.6-0.9
							c-1,0-1.9,0.3-2.6,0.9c-0.7,0.6-1.1,1.6-1.1,2.9V68.1z"/>
						<path class="st1" d="M123.7,77.2V38.7h8.3c1.5,0,2.8,0.2,4,0.6s2.2,1.1,3.1,2.1c0.9,1,1.6,2.2,1.9,3.5
							c0.4,1.3,0.5,3.2,0.5,5.5c0,1.7-0.1,3.2-0.3,4.4c-0.2,1.2-0.6,2.3-1.3,3.3c-0.8,1.3-1.8,2.2-3,2.9c-1.3,0.7-2.9,1.1-5,1.1
							h-2.8v15H123.7z M129.2,43.9V57h2.6c1.1,0,2-0.2,2.6-0.5c0.6-0.3,1.1-0.8,1.3-1.4c0.3-0.5,0.5-1.2,0.5-2
							c0.1-0.8,0.1-1.7,0.1-2.6c0-0.9,0-1.8-0.1-2.6c0-0.8-0.2-1.5-0.5-2.1c-0.3-0.6-0.7-1.1-1.3-1.4c-0.6-0.3-1.4-0.5-2.5-0.5
							H129.2z"/>
						<path class="st1" d="M145.6,77.2V38.7h16.4v5.2h-10.9v11.3h9.5v5.2h-9.5v11.3h10.9v5.5H145.6z"/>
					</g>
					<g id="Group" transform="translate(0.4, 0)">
						<path id="Path" class="st1" d="M8.4,35.4c0-3.4,2.7-6.2,6.1-6.2h0.8c-1.3-1-1.8-2.7-1.3-4.3c0.5-1.6,2-2.6,3.6-2.6H19
							c-0.7-1.7-1.8-3.1-3.2-4.2l0,0c-3.3-2.5-7.8-2.7-11.2-0.4S-0.6,24,0.2,28.1s4.1,7.2,8.2,7.9C8.4,35.8,8.4,35.6,8.4,35.4z"/>
						<path id="Path_1_" class="st1" d="M31.4,31H14.6c-2.5,0-4.6,2-4.6,4.5s2.1,4.5,4.6,4.5h16.8c2.5,0,4.6-2,4.6-4.5
							S33.9,31,31.4,31z"/>
						<path id="Path_2_" class="st1" d="M40.5,15c-1.4,0-2.5,1.1-2.5,2.4v17.3c0,1.3,1.1,2.4,2.5,2.4s2.5-1.1,2.5-2.4V17.4
							C43,16.1,41.9,15,40.5,15z"/>
						<path id="Path_3_" class="st1" d="M45,23h-1v6h1c0.6,0,1-0.3,1-0.8v-4.5C46,23.3,45.6,23,45,23z"/>
						<path id="Shape" class="st1" d="M16.6,17c2.3,1.6,3.9,4,4.5,6.7h-3.7c-1.3,0-2.3,1-2.3,2.2c0,1.2,1.1,2.2,2.3,2.2H21
							c-0.1,0.3-0.1,0.5-0.2,0.7h10.6c2.3,0,4.4,1.2,5.5,3.1V17.7c0-0.3,0-0.5,0.1-0.7H16.6z M35.4,22.2c0,0.4-0.4,0.7-0.8,0.7
							c-0.4,0-0.8-0.3-0.8-0.7V20H33c-0.4,0-0.8-0.3-0.8-0.7c0-0.4,0.4-0.7,0.8-0.7h1.6c0.4,0,0.8,0.3,0.8,0.7V22.2z"/>
						<circle id="Oval" class="st1" cx="8" cy="4" r="4"/>
						<path id="Path_4_" class="st1" d="M19.3,2H13c0.7,1.4,0.7,3,0,4.4h2.7V10H20V2.7C20,2.3,19.7,2,19.3,2z"/>
						<path id="Path_5_" class="st1" d="M31,15l-2.5-3.7c-0.1-0.2-0.4-0.3-0.6-0.3H10.8c-0.4,0-0.8,0.4-0.8,0.8v2.4
							c1.4,0,2.8,0.3,4.2,0.8H31z"/>
					</g>
				</g>
			</g>
		</g>
	</g>
</g>
</svg>
